<?xml version="1.0" encoding="utf-8"?>
<svg version="1.1" id="Layer_1" xmlns="http://www.w3.org/2000/svg" xmlns:xlink="http://www.w3.org/1999/xlink" x="0px" y="0px"
	 viewBox="0 0 32 32" style="enable-background:new 0 0 32 32;" xml:space="preserve" fill="#0969da" height="32" width="32">

<path d="M16,14.8C14.6,12,10.7,6.8,7.1,4.3c-3.4-2.4-4.8-2-5.6-1.6c-1,0.5-1.2,2-1.2,2.9S0.8,13,1.1,14c1.1,3.6,4.9,4.8,8.4,4.4
	c0.2,0,0.4-0.1,0.5-0.1c-0.2,0-0.4,0.1-0.5,0.1c-5.1,0.8-9.7,2.6-3.7,9.3c6.6,6.8,9-1.5,10.2-5.6c1.2,4.2,2.7,12.1,10.1,5.6
	c5.6-5.6,1.5-8.5-3.6-9.3c-0.2,0-0.4,0-0.5-0.1c0.2,0,0.4,0,0.5,0.1c3.5,0.4,7.3-0.8,8.4-4.4c0.3-1.1,0.8-7.6,0.8-8.5
	s-0.2-2.4-1.2-2.9c-0.9-0.4-2.2-0.8-5.6,1.6C21.3,6.8,17.4,12,16,14.8z"/>
</svg>
