<?xml version="1.0" encoding="utf-8"?>
<svg version="1.1" id="Layer_1" xmlns="http://www.w3.org/2000/svg" xmlns:xlink="http://www.w3.org/1999/xlink" x="0px" y="0px"
	 width="32" height="32" viewBox="0 0 512 512" style="enable-background:new 0 0 512 512;" xml:space="preserve">
<style type="text/css">
	.st0{fill:#0969da;}
</style>
<g id="XMLID_1_">
	<path id="XMLID_5_" class="st0" d="M256,0C115,0,0,115,0,256s115,256,256,256c52,0,102.4-15.8,144.9-44.9l-41.7-60.7
		C329.3,426.9,293,438,256,438C155.2,438,73.3,356,73.3,255.2S155.2,72.5,256,72.5S438.7,155.2,438.7,256v18.9
		c0,15.8-3.2,41.7-26.8,41.7h-9.5c-7.1,0-21.3-14.2-22.1-21.3V256c0-68.5-55.9-124.5-124.5-124.5S131.5,187.5,131.5,256
		S187.5,380.5,256,380.5c28.4,0,54.4-10.2,75.6-26c18.1,21.3,44.1,36.2,70.9,36.2h9.5c59.1,0,100-47.3,100-115V256
		C512,115,397,0,256,0z M256,307.2c-28.4,0-51.2-22.8-51.2-51.2s22.8-51.2,51.2-51.2s51.2,22.8,51.2,51.2S284.4,307.2,256,307.2z"/>
</g>
</svg>
