
<?xml version="1.0" encoding="UTF-8"?>
<svg xmlns="http://www.w3.org/2000/svg" xmlns:xlink="http://www.w3.org/1999/xlink" width="32px" height="32px" viewBox="0 0 32 32" version="1.1">
<g id="surface1">
<path style=" stroke:none;fill-rule:nonzero;fill:rgb(3.529412%,41.176471%,85.490196%);fill-opacity:1;" d="M 16 0 C 7.1875 0 0 7.1875 0 16 C 0 24.8125 7.1875 32 16 32 C 19.25 32 22.398438 31.011719 25.054688 29.195312 L 22.449219 25.398438 C 20.582031 26.679688 18.3125 27.375 16 27.375 C 9.699219 27.375 4.582031 22.25 4.582031 15.949219 C 4.582031 9.648438 9.699219 4.53125 16 4.53125 C 22.300781 4.53125 27.417969 9.699219 27.417969 16 L 27.417969 17.179688 C 27.417969 18.167969 27.21875 19.789062 25.742188 19.789062 L 25.148438 19.789062 C 24.707031 19.789062 23.820312 18.898438 23.769531 18.457031 L 23.769531 16 C 23.769531 11.71875 20.273438 8.21875 15.988281 8.21875 C 11.699219 8.21875 8.21875 11.71875 8.21875 16 C 8.21875 20.28125 11.71875 23.78125 16 23.78125 C 17.773438 23.78125 19.398438 23.144531 20.726562 22.15625 C 21.855469 23.488281 23.480469 24.417969 25.15625 24.417969 L 25.75 24.417969 C 29.445312 24.417969 32 21.460938 32 17.230469 L 32 16 C 32 7.1875 24.8125 0 16 0 Z M 16 19.199219 C 14.226562 19.199219 12.800781 17.773438 12.800781 16 C 12.800781 14.226562 14.226562 12.800781 16 12.800781 C 17.773438 12.800781 19.199219 14.226562 19.199219 16 C 19.199219 17.773438 17.773438 19.199219 16 19.199219 Z M 16 19.199219 "/>
</g>
</svg>
