<?xml version="1.0" encoding="UTF-8"?>
<svg enable-background="new 0 0 32 32" version="1.1" viewBox="0 0 32 32" xml:space="preserve" xmlns="http://www.w3.org/2000/svg">
<style type="text/css">
	.st0{fill:#0969DA;}
</style>

	<path class="st0" d="M16,0C7.2,0,0,7.2,0,16s7.2,16,16,16c3.2,0,6.4-1,9.1-2.8l-2.6-3.8c-1.9,1.3-4.1,2-6.4,2   c-6.3,0-11.4-5.1-11.4-11.4S9.7,4.5,16,4.5S27.4,9.7,27.4,16v1.2c0,1-0.2,2.6-1.7,2.6h-0.6c-0.4,0-1.3-0.9-1.4-1.3V16   c0-4.3-3.5-7.8-7.8-7.8S8.2,11.7,8.2,16s3.5,7.8,7.8,7.8c1.8,0,3.4-0.6,4.7-1.6c1.1,1.3,2.8,2.3,4.4,2.3h0.6c3.7,0,6.2-3,6.2-7.2   V16C32,7.2,24.8,0,16,0z M16,19.2c-1.8,0-3.2-1.4-3.2-3.2s1.4-3.2,3.2-3.2s3.2,1.4,3.2,3.2S17.8,19.2,16,19.2z"/>

</svg>
